<mxfile host="app.diagrams.net" modified="2024-02-07T11:39:10.259Z" agent="Mozilla/5.0 (X11; Linux x86_64; rv:122.0) Gecko/20100101 Firefox/122.0" etag="j5RmiktKZCyTMEfOWL7q" version="22.1.21" type="device">
  <diagram name="Page-1" id="KFCx-zrtSk8KoSc1lG5y">
    <mxGraphModel dx="2020" dy="907" grid="1" gridSize="10" guides="1" tooltips="1" connect="1" arrows="1" fold="1" page="1" pageScale="1" pageWidth="850" pageHeight="1100" math="0" shadow="0">
      <root>
        <mxCell id="0" />
        <mxCell id="1" parent="0" />
        <mxCell id="1OJFnhTLq1hZbmYV2B88-1" value="Host" style="swimlane;whiteSpace=wrap;html=1;labelBackgroundColor=none;" parent="1" vertex="1">
          <mxGeometry x="10" y="10" width="830" height="660" as="geometry" />
        </mxCell>
        <mxCell id="1OJFnhTLq1hZbmYV2B88-3" value="" style="shape=actor;whiteSpace=wrap;html=1;labelBackgroundColor=none;" parent="1OJFnhTLq1hZbmYV2B88-1" vertex="1">
          <mxGeometry x="30" y="520" width="40" height="60" as="geometry" />
        </mxCell>
        <mxCell id="1OJFnhTLq1hZbmYV2B88-4" value="CAN tools" style="swimlane;fontStyle=0;childLayout=stackLayout;horizontal=1;startSize=30;horizontalStack=0;resizeParent=1;resizeParentMax=0;resizeLast=0;collapsible=1;marginBottom=0;whiteSpace=wrap;html=1;swimlaneLine=1;strokeColor=none;labelBackgroundColor=none;" parent="1OJFnhTLq1hZbmYV2B88-1" vertex="1">
          <mxGeometry x="90" y="490" width="140" height="120" as="geometry" />
        </mxCell>
        <mxCell id="1OJFnhTLq1hZbmYV2B88-5" value="candump&lt;span style=&quot;white-space: pre;&quot;&gt;&#x9;&lt;/span&gt;&lt;span style=&quot;white-space: pre;&quot;&gt;&#x9;&lt;/span&gt;" style="text;fillColor=none;align=left;verticalAlign=middle;spacingLeft=4;spacingRight=4;overflow=hidden;points=[[0,0.5],[1,0.5]];portConstraint=eastwest;rotatable=0;whiteSpace=wrap;html=1;rounded=1;labelBackgroundColor=none;" parent="1OJFnhTLq1hZbmYV2B88-4" vertex="1">
          <mxGeometry y="30" width="140" height="30" as="geometry" />
        </mxCell>
        <mxCell id="1OJFnhTLq1hZbmYV2B88-6" value="cansniff" style="text;fillColor=none;align=left;verticalAlign=middle;spacingLeft=4;spacingRight=4;overflow=hidden;points=[[0,0.5],[1,0.5]];portConstraint=eastwest;rotatable=0;whiteSpace=wrap;html=1;rounded=1;labelBackgroundColor=none;" parent="1OJFnhTLq1hZbmYV2B88-4" vertex="1">
          <mxGeometry y="60" width="140" height="30" as="geometry" />
        </mxCell>
        <mxCell id="1OJFnhTLq1hZbmYV2B88-7" value="caringcaribou" style="text;fillColor=none;align=left;verticalAlign=middle;spacingLeft=4;spacingRight=4;overflow=hidden;points=[[0,0.5],[1,0.5]];portConstraint=eastwest;rotatable=0;whiteSpace=wrap;html=1;glass=0;rounded=1;labelBackgroundColor=none;" parent="1OJFnhTLq1hZbmYV2B88-4" vertex="1">
          <mxGeometry y="90" width="140" height="30" as="geometry" />
        </mxCell>
        <mxCell id="Cs0YRlfQrqD5RInvhK6t-34" style="edgeStyle=orthogonalEdgeStyle;rounded=0;orthogonalLoop=1;jettySize=auto;html=1;exitX=0;exitY=0.5;exitDx=0;exitDy=0;entryX=1;entryY=0.5;entryDx=0;entryDy=0;startArrow=classic;startFill=1;" edge="1" parent="1OJFnhTLq1hZbmYV2B88-1" source="1OJFnhTLq1hZbmYV2B88-8" target="Cs0YRlfQrqD5RInvhK6t-17">
          <mxGeometry relative="1" as="geometry" />
        </mxCell>
        <mxCell id="1OJFnhTLq1hZbmYV2B88-8" value="Container - GUI" style="swimlane;whiteSpace=wrap;html=1;labelBackgroundColor=none;" parent="1OJFnhTLq1hZbmYV2B88-1" vertex="1">
          <mxGeometry x="680" y="120" width="90" height="60" as="geometry" />
        </mxCell>
        <mxCell id="1OJFnhTLq1hZbmYV2B88-11" style="edgeStyle=orthogonalEdgeStyle;rounded=0;orthogonalLoop=1;jettySize=auto;html=1;exitX=1;exitY=0.5;exitDx=0;exitDy=0;startArrow=classic;startFill=1;labelBackgroundColor=none;fontColor=default;" parent="1OJFnhTLq1hZbmYV2B88-1" source="1OJFnhTLq1hZbmYV2B88-9" target="1OJFnhTLq1hZbmYV2B88-4" edge="1">
          <mxGeometry relative="1" as="geometry" />
        </mxCell>
        <mxCell id="Cs0YRlfQrqD5RInvhK6t-35" style="edgeStyle=orthogonalEdgeStyle;rounded=0;orthogonalLoop=1;jettySize=auto;html=1;exitX=0;exitY=0.5;exitDx=0;exitDy=0;entryX=1;entryY=0.5;entryDx=0;entryDy=0;startArrow=classic;startFill=1;" edge="1" parent="1OJFnhTLq1hZbmYV2B88-1" source="1OJFnhTLq1hZbmYV2B88-20" target="Cs0YRlfQrqD5RInvhK6t-21">
          <mxGeometry relative="1" as="geometry" />
        </mxCell>
        <mxCell id="1OJFnhTLq1hZbmYV2B88-20" value="Container - Controls" style="swimlane;whiteSpace=wrap;html=1;labelBackgroundColor=none;" parent="1OJFnhTLq1hZbmYV2B88-1" vertex="1">
          <mxGeometry x="680" y="255" width="90" height="60" as="geometry" />
        </mxCell>
        <mxCell id="1OJFnhTLq1hZbmYV2B88-25" value="&lt;div&gt;can0&lt;/div&gt;" style="shape=process;whiteSpace=wrap;html=1;backgroundOutline=1;rotation=90;labelBackgroundColor=none;" parent="1OJFnhTLq1hZbmYV2B88-1" vertex="1">
          <mxGeometry x="492.4" y="640" width="80" height="20" as="geometry" />
        </mxCell>
        <mxCell id="1OJFnhTLq1hZbmYV2B88-23" value="" style="endArrow=classic;startArrow=classic;html=1;rounded=0;entryX=1;entryY=0.5;entryDx=0;entryDy=0;exitX=0;exitY=0.5;exitDx=0;exitDy=0;labelBackgroundColor=none;fontColor=default;" parent="1OJFnhTLq1hZbmYV2B88-1" source="1OJFnhTLq1hZbmYV2B88-25" target="1OJFnhTLq1hZbmYV2B88-18" edge="1">
          <mxGeometry width="50" height="50" relative="1" as="geometry">
            <mxPoint x="530" y="740" as="sourcePoint" />
            <mxPoint x="360" y="610" as="targetPoint" />
          </mxGeometry>
        </mxCell>
        <mxCell id="Cs0YRlfQrqD5RInvhK6t-5" value="Central container" style="swimlane;whiteSpace=wrap;html=1;labelBackgroundColor=none;" vertex="1" parent="1OJFnhTLq1hZbmYV2B88-1">
          <mxGeometry x="220" y="105" width="200" height="250" as="geometry" />
        </mxCell>
        <mxCell id="Cs0YRlfQrqD5RInvhK6t-6" value="&lt;div&gt;vcan0&lt;/div&gt;" style="shape=delay;whiteSpace=wrap;html=1;rotation=-90;labelBackgroundColor=none;" vertex="1" parent="Cs0YRlfQrqD5RInvhK6t-5">
          <mxGeometry x="10" y="120" width="80" height="40" as="geometry" />
        </mxCell>
        <mxCell id="Cs0YRlfQrqD5RInvhK6t-7" value="&lt;div&gt;vcan1&lt;/div&gt;" style="shape=delay;whiteSpace=wrap;html=1;rotation=-90;labelBackgroundColor=none;" vertex="1" parent="Cs0YRlfQrqD5RInvhK6t-5">
          <mxGeometry x="60" y="120" width="80" height="40" as="geometry" />
        </mxCell>
        <mxCell id="Cs0YRlfQrqD5RInvhK6t-8" value="&lt;div&gt;vcan2&lt;/div&gt;" style="shape=delay;whiteSpace=wrap;html=1;rotation=-90;labelBackgroundColor=none;" vertex="1" parent="Cs0YRlfQrqD5RInvhK6t-5">
          <mxGeometry x="110" y="120" width="80" height="40" as="geometry" />
        </mxCell>
        <mxCell id="Cs0YRlfQrqD5RInvhK6t-9" value="CAN GW" style="html=1;whiteSpace=wrap;aspect=fixed;shape=isoRectangle;labelBackgroundColor=none;" vertex="1" parent="Cs0YRlfQrqD5RInvhK6t-5">
          <mxGeometry x="60" y="30" width="80" height="48" as="geometry" />
        </mxCell>
        <mxCell id="Cs0YRlfQrqD5RInvhK6t-12" style="edgeStyle=orthogonalEdgeStyle;rounded=0;orthogonalLoop=1;jettySize=auto;html=1;entryX=-0.007;entryY=0.521;entryDx=0;entryDy=0;entryPerimeter=0;startArrow=classic;startFill=1;labelBackgroundColor=none;fontColor=default;" edge="1" parent="Cs0YRlfQrqD5RInvhK6t-5" source="Cs0YRlfQrqD5RInvhK6t-6" target="Cs0YRlfQrqD5RInvhK6t-9">
          <mxGeometry relative="1" as="geometry" />
        </mxCell>
        <mxCell id="Cs0YRlfQrqD5RInvhK6t-13" style="edgeStyle=orthogonalEdgeStyle;rounded=0;orthogonalLoop=1;jettySize=auto;html=1;entryX=1.003;entryY=0.504;entryDx=0;entryDy=0;entryPerimeter=0;startArrow=classic;startFill=1;labelBackgroundColor=none;fontColor=default;" edge="1" parent="Cs0YRlfQrqD5RInvhK6t-5" source="Cs0YRlfQrqD5RInvhK6t-8" target="Cs0YRlfQrqD5RInvhK6t-9">
          <mxGeometry relative="1" as="geometry" />
        </mxCell>
        <mxCell id="Cs0YRlfQrqD5RInvhK6t-14" value="" style="endArrow=classic;startArrow=classic;html=1;rounded=0;exitX=1;exitY=0.5;exitDx=0;exitDy=0;labelBackgroundColor=none;fontColor=default;" edge="1" parent="Cs0YRlfQrqD5RInvhK6t-5" source="Cs0YRlfQrqD5RInvhK6t-7">
          <mxGeometry width="50" height="50" relative="1" as="geometry">
            <mxPoint x="65" y="80" as="sourcePoint" />
            <mxPoint x="100" y="80" as="targetPoint" />
          </mxGeometry>
        </mxCell>
        <mxCell id="1OJFnhTLq1hZbmYV2B88-9" value="vxcan" style="shape=process;whiteSpace=wrap;html=1;backgroundOutline=1;rotation=90;labelBackgroundColor=none;" parent="Cs0YRlfQrqD5RInvhK6t-5" vertex="1">
          <mxGeometry x="-20" y="230" width="80" height="20" as="geometry" />
        </mxCell>
        <mxCell id="1OJFnhTLq1hZbmYV2B88-18" value="vxcan" style="shape=process;whiteSpace=wrap;html=1;backgroundOutline=1;rotation=90;labelBackgroundColor=none;" parent="Cs0YRlfQrqD5RInvhK6t-5" vertex="1">
          <mxGeometry x="10" y="230" width="80" height="20" as="geometry" />
        </mxCell>
        <mxCell id="Cs0YRlfQrqD5RInvhK6t-30" style="edgeStyle=orthogonalEdgeStyle;rounded=0;orthogonalLoop=1;jettySize=auto;html=1;exitX=0;exitY=0.5;exitDx=0;exitDy=0;entryX=0.5;entryY=1;entryDx=0;entryDy=0;startArrow=classic;startFill=1;" edge="1" parent="1OJFnhTLq1hZbmYV2B88-1" source="Cs0YRlfQrqD5RInvhK6t-17" target="Cs0YRlfQrqD5RInvhK6t-8">
          <mxGeometry relative="1" as="geometry" />
        </mxCell>
        <mxCell id="Cs0YRlfQrqD5RInvhK6t-17" value="&lt;div&gt;ECU container 1&lt;br&gt;&lt;/div&gt;" style="swimlane;whiteSpace=wrap;html=1;startSize=23;labelBackgroundColor=none;" vertex="1" parent="1OJFnhTLq1hZbmYV2B88-1">
          <mxGeometry x="476.2" y="215" width="112.4" height="40" as="geometry" />
        </mxCell>
        <mxCell id="Cs0YRlfQrqD5RInvhK6t-24" style="edgeStyle=orthogonalEdgeStyle;rounded=0;orthogonalLoop=1;jettySize=auto;html=1;exitX=0;exitY=0.5;exitDx=0;exitDy=0;entryX=0;entryY=0.5;entryDx=0;entryDy=0;startArrow=classic;startFill=1;" edge="1" parent="1OJFnhTLq1hZbmYV2B88-1" source="Cs0YRlfQrqD5RInvhK6t-19" target="Cs0YRlfQrqD5RInvhK6t-8">
          <mxGeometry relative="1" as="geometry" />
        </mxCell>
        <mxCell id="Cs0YRlfQrqD5RInvhK6t-19" value="&lt;div&gt;ECU container 3&lt;br&gt;&lt;/div&gt;" style="swimlane;whiteSpace=wrap;html=1;startSize=23;labelBackgroundColor=none;" vertex="1" parent="1OJFnhTLq1hZbmYV2B88-1">
          <mxGeometry x="476.2" y="315" width="112.4" height="40" as="geometry" />
        </mxCell>
        <mxCell id="Cs0YRlfQrqD5RInvhK6t-29" style="edgeStyle=orthogonalEdgeStyle;rounded=0;orthogonalLoop=1;jettySize=auto;html=1;exitX=0;exitY=0.5;exitDx=0;exitDy=0;entryX=0.25;entryY=1;entryDx=0;entryDy=0;startArrow=classic;startFill=1;" edge="1" parent="1OJFnhTLq1hZbmYV2B88-1" source="Cs0YRlfQrqD5RInvhK6t-21" target="Cs0YRlfQrqD5RInvhK6t-8">
          <mxGeometry relative="1" as="geometry" />
        </mxCell>
        <mxCell id="Cs0YRlfQrqD5RInvhK6t-21" value="&lt;div&gt;ECU container 2&lt;br&gt;&lt;/div&gt;" style="swimlane;whiteSpace=wrap;html=1;startSize=23;labelBackgroundColor=none;" vertex="1" parent="1OJFnhTLq1hZbmYV2B88-1">
          <mxGeometry x="476.2" y="265" width="112.4" height="40" as="geometry" />
        </mxCell>
        <mxCell id="Cs0YRlfQrqD5RInvhK6t-32" style="edgeStyle=orthogonalEdgeStyle;rounded=0;orthogonalLoop=1;jettySize=auto;html=1;exitX=1;exitY=0.5;exitDx=0;exitDy=0;entryX=0.75;entryY=0;entryDx=0;entryDy=0;startArrow=classic;startFill=1;" edge="1" parent="1OJFnhTLq1hZbmYV2B88-1" source="1OJFnhTLq1hZbmYV2B88-2" target="Cs0YRlfQrqD5RInvhK6t-6">
          <mxGeometry relative="1" as="geometry" />
        </mxCell>
        <mxCell id="1OJFnhTLq1hZbmYV2B88-2" value="&lt;div&gt;ECU container 4&lt;br&gt;&lt;/div&gt;" style="swimlane;whiteSpace=wrap;html=1;startSize=23;labelBackgroundColor=none;" parent="1OJFnhTLq1hZbmYV2B88-1" vertex="1">
          <mxGeometry x="60" y="120" width="112.4" height="40" as="geometry" />
        </mxCell>
        <mxCell id="Cs0YRlfQrqD5RInvhK6t-31" style="edgeStyle=orthogonalEdgeStyle;rounded=0;orthogonalLoop=1;jettySize=auto;html=1;exitX=1;exitY=0.5;exitDx=0;exitDy=0;entryX=0.5;entryY=0;entryDx=0;entryDy=0;startArrow=classic;startFill=1;" edge="1" parent="1OJFnhTLq1hZbmYV2B88-1" source="Cs0YRlfQrqD5RInvhK6t-16" target="Cs0YRlfQrqD5RInvhK6t-6">
          <mxGeometry relative="1" as="geometry">
            <Array as="points">
              <mxPoint x="200" y="190" />
              <mxPoint x="200" y="245" />
            </Array>
          </mxGeometry>
        </mxCell>
        <mxCell id="Cs0YRlfQrqD5RInvhK6t-16" value="&lt;div&gt;ECU container 5&lt;br&gt;&lt;/div&gt;" style="swimlane;whiteSpace=wrap;html=1;startSize=23;labelBackgroundColor=none;" vertex="1" parent="1OJFnhTLq1hZbmYV2B88-1">
          <mxGeometry x="60" y="170" width="112.4" height="40" as="geometry" />
        </mxCell>
        <mxCell id="1OJFnhTLq1hZbmYV2B88-19" value="ECU" style="pointerEvents=1;shadow=0;dashed=0;html=1;strokeColor=#6c8ebf;labelPosition=center;verticalLabelPosition=bottom;verticalAlign=top;align=center;outlineConnect=0;shape=mxgraph.veeam.cpu;labelBackgroundColor=none;fillColor=#dae8fc;" parent="1" vertex="1">
          <mxGeometry x="520" y="760" width="44.8" height="44.8" as="geometry" />
        </mxCell>
        <mxCell id="1OJFnhTLq1hZbmYV2B88-26" style="edgeStyle=orthogonalEdgeStyle;rounded=0;orthogonalLoop=1;jettySize=auto;html=1;exitX=1;exitY=0.5;exitDx=0;exitDy=0;labelBackgroundColor=none;fontColor=default;" parent="1" source="1OJFnhTLq1hZbmYV2B88-25" target="1OJFnhTLq1hZbmYV2B88-19" edge="1">
          <mxGeometry relative="1" as="geometry" />
        </mxCell>
      </root>
    </mxGraphModel>
  </diagram>
</mxfile>
